<?xml version="1.0" encoding="UTF-8" standalone="no"?>
<!-- Created with Inkscape (http://www.inkscape.org/) -->

<svg
   width="797.32159mm"
   height="368.43127mm"
   viewBox="0 0 797.32159 368.43128"
   version="1.1"
   id="svg5"
   inkscape:version="1.1.1 (3bf5ae0d25, 2021-09-20)"
   sodipodi:docname="logo5.svg"
   xmlns:inkscape="http://www.inkscape.org/namespaces/inkscape"
   xmlns:sodipodi="http://sodipodi.sourceforge.net/DTD/sodipodi-0.dtd"
   xmlns="http://www.w3.org/2000/svg"
   xmlns:svg="http://www.w3.org/2000/svg">
  <sodipodi:namedview
     id="namedview7"
     pagecolor="#505050"
     bordercolor="#eeeeee"
     borderopacity="1"
     inkscape:pageshadow="0"
     inkscape:pageopacity="0"
     inkscape:pagecheckerboard="0"
     inkscape:document-units="mm"
     showgrid="false"
     inkscape:snap-global="false"
     fit-margin-top="0"
     fit-margin-left="0"
     fit-margin-right="0"
     fit-margin-bottom="0"
     inkscape:zoom="0.26205012"
     inkscape:cx="1680.9761"
     inkscape:cy="601.03006"
     inkscape:window-width="1920"
     inkscape:window-height="1017"
     inkscape:window-x="-8"
     inkscape:window-y="-8"
     inkscape:window-maximized="1"
     inkscape:current-layer="layer1" />
  <defs
     id="defs2" />
  <g
     inkscape:label="Layer 1"
     inkscape:groupmode="layer"
     id="layer1"
     transform="translate(404.08163,68.980606)">
    <path
       style="fill:#ededed;stroke-width:0.264583"
       d="M -404.08163,152.34236 V 5.2340261 l 26.45833,-26.4573411 26.45834,-26.457341 V 99.427676 246.53602 l -26.45834,26.45733 -26.45833,26.45733 z m 390.722932,99.68226 -26.391685,-26.39267 v -57.61253 -57.61253 h -43.060434 -43.060433 l 26.457326,-26.458331 26.457327,-26.458333 h 16.603107 16.603107 V -5.7451899 -68.980606 H -13.29205 13.166283 V 104.71835 c 0,95.53443 -0.02998,173.69896 -0.06665,173.69896 -0.03665,0 -11.9428951,-11.8767 -26.458333,-26.39269 z M 118.99962,104.784 V -68.980606 H 256.11979 393.23997 L 289.25886,35.000778 185.27774,138.98216 l -0.0671,-37.37128 -0.067,-37.371294 40.15111,-40.151762 40.1511,-40.151764 H 218.68109 171.9163 v 120.84893 120.84895 l -26.45833,26.45733 -26.45833,26.45732 z M -329.9983,78.260018 V -68.980606 h 26.45834 26.45833 V 51.801685 172.58398 h 38.17514 38.17514 l 14.54309,25.18354 c 7.9987,13.85094 14.87292,25.75719 15.27604,26.45833 l 0.73296,1.27479 h -79.90952 -79.90952 z m 128.61466,52.785872 -54.53262,-94.454757 0.0668,-52.774035 0.0668,-52.774036 36.90937,63.9361561 c 20.30016,35.1648839 37.42818,64.8230009 38.06227,65.9069219 l 1.1529,1.970765 59.37054,-59.3700972 59.37054,-59.3700968 v 37.438033 37.438036 l -45.67621,45.67678 -45.67621,45.67678 32.89038,56.98184 c 18.08972,31.34001 33.06175,57.24973 33.27122,57.57715 l 0.380842,0.59531 h -30.561992 -30.562 z"
       id="path253" />
  </g>
</svg>
